<svg width="84" height="34" viewBox="0 0 84 34" fill="none" xmlns="http://www.w3.org/2000/svg">
<path d="M2.22656 25V9.29688H5.48438V22.0703H13.2188V25H2.22656ZM21.7969 25.3516C20.9219 25.3516 20.1016 25.2031 19.3359 24.9062C18.5703 24.5938 17.8906 24.1641 17.2969 23.6172C16.7188 23.0703 16.2656 22.4219 15.9375 21.6719C15.6094 20.9219 15.4453 20.1016 15.4453 19.2109C15.4453 18.0547 15.7031 17 16.2188 16.0469C16.7344 15.0781 17.4453 14.3047 18.3516 13.7266C19.2578 13.1484 20.2891 12.8594 21.4453 12.8594C22.6016 12.8594 23.5938 13.1094 24.4219 13.6094C25.2656 14.1094 25.9062 14.8047 26.3438 15.6953C26.7969 16.5703 27.0234 17.5859 27.0234 18.7422V20.0078H18.1875V17.9688H24.1641C24.1328 17.3906 23.9766 16.9219 23.6953 16.5625C23.4141 16.1875 23.0703 15.9141 22.6641 15.7422C22.2578 15.5547 21.8281 15.4609 21.375 15.4609C20.7656 15.4609 20.2344 15.6172 19.7812 15.9297C19.3438 16.2422 19 16.6797 18.75 17.2422C18.5 17.8047 18.375 18.4609 18.375 19.2109C18.375 19.8828 18.5234 20.4766 18.8203 20.9922C19.1172 21.5078 19.5312 21.9141 20.0625 22.2109C20.6094 22.5078 21.2266 22.6562 21.9141 22.6562C22.7891 22.6562 23.5703 22.4844 24.2578 22.1406C24.9609 21.7969 25.5156 21.4453 25.9219 21.0859V23.8516C25.6875 24.0703 25.3594 24.2969 24.9375 24.5312C24.5156 24.7656 24.0312 24.9609 23.4844 25.1172C22.9531 25.2734 22.3906 25.3516 21.7969 25.3516ZM32.9766 25.3516C32.4453 25.3516 31.9219 25.2891 31.4062 25.1641C30.8906 25.0547 30.4141 24.9062 29.9766 24.7188C29.5547 24.5312 29.2109 24.3438 28.9453 24.1562V21.5547C29.2422 21.7578 29.6016 21.9531 30.0234 22.1406C30.4453 22.3281 30.8828 22.4844 31.3359 22.6094C31.7891 22.7188 32.2031 22.7734 32.5781 22.7734C33.1719 22.7734 33.625 22.6641 33.9375 22.4453C34.2656 22.2266 34.4297 21.9297 34.4297 21.5547C34.4297 21.2578 34.2969 21.0234 34.0312 20.8516C33.7656 20.6797 33.375 20.5078 32.8594 20.3359L31.4062 19.8203C30.5156 19.5234 29.8906 19.1016 29.5312 18.5547C29.1875 18.0078 29.0156 17.3594 29.0156 16.6094C29.0156 15.8594 29.2031 15.2109 29.5781 14.6641C29.9688 14.1016 30.5078 13.6641 31.1953 13.3516C31.8984 13.0234 32.6875 12.8594 33.5625 12.8594C34.2969 12.8594 34.9766 12.9688 35.6016 13.1875C36.2422 13.3906 36.7266 13.6406 37.0547 13.9375V16.5625C36.6953 16.3125 36.2422 16.0703 35.6953 15.8359C35.1641 15.6016 34.6016 15.4844 34.0078 15.4844C33.4453 15.4844 33 15.6094 32.6719 15.8594C32.3438 16.1094 32.1797 16.4062 32.1797 16.75C32.1797 17 32.2734 17.2344 32.4609 17.4531C32.6641 17.6562 33.0234 17.8359 33.5391 17.9922L34.875 18.4375C35.7969 18.7031 36.4766 19.1016 36.9141 19.6328C37.3516 20.1484 37.5703 20.7891 37.5703 21.5547C37.5703 22.2734 37.3594 22.9219 36.9375 23.5C36.5312 24.0781 35.9766 24.5312 35.2734 24.8594C34.5859 25.1875 33.8203 25.3516 32.9766 25.3516ZM43.3359 25.3516C42.8047 25.3516 42.2812 25.2891 41.7656 25.1641C41.25 25.0547 40.7734 24.9062 40.3359 24.7188C39.9141 24.5312 39.5703 24.3438 39.3047 24.1562V21.5547C39.6016 21.7578 39.9609 21.9531 40.3828 22.1406C40.8047 22.3281 41.2422 22.4844 41.6953 22.6094C42.1484 22.7188 42.5625 22.7734 42.9375 22.7734C43.5312 22.7734 43.9844 22.6641 44.2969 22.4453C44.625 22.2266 44.7891 21.9297 44.7891 21.5547C44.7891 21.2578 44.6562 21.0234 44.3906 20.8516C44.125 20.6797 43.7344 20.5078 43.2188 20.3359L41.7656 19.8203C40.875 19.5234 40.25 19.1016 39.8906 18.5547C39.5469 18.0078 39.375 17.3594 39.375 16.6094C39.375 15.8594 39.5625 15.2109 39.9375 14.6641C40.3281 14.1016 40.8672 13.6641 41.5547 13.3516C42.2578 13.0234 43.0469 12.8594 43.9219 12.8594C44.6562 12.8594 45.3359 12.9688 45.9609 13.1875C46.6016 13.3906 47.0859 13.6406 47.4141 13.9375V16.5625C47.0547 16.3125 46.6016 16.0703 46.0547 15.8359C45.5234 15.6016 44.9609 15.4844 44.3672 15.4844C43.8047 15.4844 43.3594 15.6094 43.0312 15.8594C42.7031 16.1094 42.5391 16.4062 42.5391 16.75C42.5391 17 42.6328 17.2344 42.8203 17.4531C43.0234 17.6562 43.3828 17.8359 43.8984 17.9922L45.2344 18.4375C46.1562 18.7031 46.8359 19.1016 47.2734 19.6328C47.7109 20.1484 47.9297 20.7891 47.9297 21.5547C47.9297 22.2734 47.7188 22.9219 47.2969 23.5C46.8906 24.0781 46.3359 24.5312 45.6328 24.8594C44.9453 25.1875 44.1797 25.3516 43.3359 25.3516ZM55.9688 25.3516C55.1094 25.3516 54.2969 25.1953 53.5312 24.8828C52.7812 24.5547 52.1094 24.1094 51.5156 23.5469C50.9219 22.9844 50.4609 22.3281 50.1328 21.5781C49.8047 20.8125 49.6406 19.9922 49.6406 19.1172C49.6406 18.2422 49.8047 17.4297 50.1328 16.6797C50.4609 15.9141 50.9219 15.25 51.5156 14.6875C52.1094 14.1094 52.7812 13.6641 53.5312 13.3516C54.2969 13.0234 55.1094 12.8594 55.9688 12.8594C56.8281 12.8594 57.6406 13.0234 58.4062 13.3516C59.1719 13.6641 59.8438 14.1094 60.4219 14.6875C61.0156 15.25 61.4766 15.9141 61.8047 16.6797C62.1484 17.4297 62.3203 18.2422 62.3203 19.1172C62.3203 19.9922 62.1484 20.8125 61.8047 21.5781C61.4766 22.3281 61.0156 22.9844 60.4219 23.5469C59.8438 24.1094 59.1719 24.5547 58.4062 24.8828C57.6406 25.1953 56.8281 25.3516 55.9688 25.3516ZM55.9688 22.4688C56.5469 22.4688 57.0703 22.3438 57.5391 22.0938C58.0234 21.8281 58.4141 21.4453 58.7109 20.9453C59.0078 20.4297 59.1562 19.8203 59.1562 19.1172C59.1562 18.3828 59.0078 17.7656 58.7109 17.2656C58.4141 16.7656 58.0234 16.3906 57.5391 16.1406C57.0703 15.875 56.5469 15.7422 55.9688 15.7422C55.4219 15.7422 54.8984 15.875 54.3984 16.1406C53.9141 16.3906 53.5234 16.7656 53.2266 17.2656C52.9453 17.7656 52.8047 18.3828 52.8047 19.1172C52.8047 19.8203 52.9453 20.4297 53.2266 20.9453C53.5234 21.4453 53.9141 21.8281 54.3984 22.0938C54.8984 22.3438 55.4219 22.4688 55.9688 22.4688ZM72.9609 25L72.9375 18.1328C72.9375 17.3359 72.7422 16.7422 72.3516 16.3516C71.9766 15.9609 71.4531 15.7656 70.7812 15.7656C70.25 15.7656 69.7578 15.9375 69.3047 16.2812C68.8516 16.625 68.4531 17.0312 68.1094 17.5V14.8516C68.3594 14.5234 68.6562 14.2109 69 13.9141C69.3594 13.6016 69.7656 13.3516 70.2188 13.1641C70.6719 12.9609 71.1641 12.8594 71.6953 12.8594C72.5078 12.8594 73.2344 13.0391 73.875 13.3984C74.5156 13.7578 75.0156 14.3047 75.375 15.0391C75.75 15.7578 75.9375 16.6562 75.9375 17.7344V25H72.9609ZM65.1328 25V13.1641H68.1094V25H65.1328Z" fill="#171100"/>
<path d="M80.7656 25.4219C80.25 25.4219 79.8047 25.2422 79.4297 24.8828C79.0703 24.5078 78.8906 24.0703 78.8906 23.5703C78.8906 23.0391 79.0703 22.5938 79.4297 22.2344C79.8047 21.8594 80.25 21.6719 80.7656 21.6719C81.2812 21.6719 81.7188 21.8594 82.0781 22.2344C82.4531 22.5938 82.6406 23.0391 82.6406 23.5703C82.6406 24.0703 82.4531 24.5078 82.0781 24.8828C81.7188 25.2422 81.2812 25.4219 80.7656 25.4219Z" fill="#FFB900"/>
</svg>
